<?xml version="1.0" encoding="utf-8"?>
<!-- Generator: Adobe Illustrator 16.0.0, SVG Export Plug-In . SVG Version: 6.00 Build 0)  -->
<!DOCTYPE svg PUBLIC "-//W3C//DTD SVG 1.1//EN" "http://www.w3.org/Graphics/SVG/1.1/DTD/svg11.dtd">
<svg version="1.1" id="レイヤー_1" xmlns="http://www.w3.org/2000/svg" xmlns:xlink="http://www.w3.org/1999/xlink" x="0px"
	 y="0px" width="549.382px" height="166.58px" viewBox="0 0 549.382 166.58" enable-background="new 0 0 549.382 166.58"
	 xml:space="preserve">
<g>
	<path fill="#9E9E9F" d="M398.018,104.883h-0.381H78.298h-0.486c-2.321,0-3.467,0.686-3.467,2.076v1.035h0.451h326.689v-1.035
		C401.485,105.568,400.343,104.883,398.018,104.883z"/>
	<path fill="#9E9E9F" d="M74.796,112.77h-0.451v1.065c0,1.37,1.057,2.067,3.176,2.128c0.084,0.01,0.182,0.013,0.291,0.013h320.206
		c2.325,0,3.468-0.706,3.468-2.141v-1.065H74.796z"/>
	<g>
		<path fill="#9E9E9F" d="M328.775,30.203c2.028,0.029,3.604,0.051,4.058,0.055c1.793,0.015,3.386-1.422,3.478-3.482v-0.979
			c0.085-1.836-1.561-3.479-3.478-3.479c-0.529-0.018-1.036-0.034-1.522-0.049c-5.962-0.242-9.493-0.327-14.916-0.303
			c-0.098,0-0.192,0-0.29,0c-0.103,0-0.201,0-0.307,0c-5.14-0.023-8.593,0.055-14.015,0.268c-0.104,0.006-2.127,0.184-3.502,0.664
			c-1.412,0.494-2.64,2.082-2.64,2.082c-0.109,0.154-0.226,0.324-0.335,0.476c-3.449,4.866-5.445,7.778-8.383,12.337
			c-0.056,0.078-0.105,0.162-0.158,0.24c-0.057,0.088-0.111,0.172-0.17,0.258c-2.947,4.495-4.799,7.492-7.802,12.54
			c0,0-0.833,1.951-0.882,3.447c-0.051,1.538,0.797,3.267,0.797,3.267l0,0c0.027,0.046,0.057,0.096,0.085,0.141
			c3.003,5.05,4.854,8.045,7.802,12.539c0.059,0.09,0.113,0.172,0.17,0.26c0.053,0.079,0.103,0.16,0.158,0.242
			c2.938,4.557,4.934,7.471,8.383,12.336c0.112,0.158,0.235,0.332,0.348,0.496c0.021,0.024,1.236,1.586,2.637,2.075
			c1.181,0.415,2.834,0.601,3.349,0.652c5.507,0.216,8.974,0.272,14.158,0.251c0.105,0,0.204,0,0.307,0c0.098,0,0.192,0,0.29,0
			c5.423,0.021,8.954-0.084,14.916-0.322c0.486-0.016,0.993-0.031,1.522-0.051c1.917,0,3.563-1.642,3.478-3.478v-0.983
			c-0.092-2.057-1.685-3.494-3.478-3.479c-0.454,0.005-2.029,0.026-4.058,0.056c-0.853,0.063-8.416,0.129-12.678,0.201
			c-2.115-0.035-5.039-0.045-7.555-0.072l0.006-0.002c-1.932-0.023-5.141-0.07-6.383-0.744c-1.336-0.722-3.094-3.262-3.889-4.445
			c-1.502-2.255-3.418-5.137-4.764-7.133c-0.979-1.563-2.299-3.641-3.515-5.557c0,0,0-0.002-0.003-0.003
			c-0.616-1.019-2.465-3.758-2.491-5.711c-0.021-1.806,1.134-4.237,2.704-7.154c1.156-1.818,2.382-3.75,3.305-5.224
			c1.336-1.979,3.227-4.828,4.725-7.074c0.777-1.159,2.565-3.771,3.925-4.502c1.243-0.675,4.452-0.721,6.386-0.744l0,0
			c2.515-0.027,5.436-0.057,7.549-0.092C320.359,30.094,327.923,30.139,328.775,30.203z"/>
	</g>
	<path fill="#9E9E9F" d="M268.118,50.291h-48.68c0.39-0.826,0.842-1.699,1.344-2.632c1.156-1.818,2.382-3.75,3.306-5.224
		c1.336-1.979,3.224-4.828,4.724-7.074c0.778-1.159,2.567-3.771,3.923-4.502c1.246-0.675,4.454-0.721,6.387-0.744
		c2.514-0.027,5.438-0.036,7.55-0.072c4.263,0.072,11.824,0.096,12.678,0.16c2.025,0.029,3.603,0.051,4.058,0.055
		c1.793,0.015,3.386-1.422,3.479-3.482v-0.979c0.086-1.836-1.561-3.479-3.479-3.479c-0.532-0.018-1.035-0.034-1.523-0.049
		c-5.963-0.242-9.495-0.303-14.915-0.281c-0.101,0-0.192,0-0.289,0c-0.104,0-0.202,0-0.307,0c-5.142-0.021-8.591,0.033-14.019,0.246
		c-0.101,0.006-2.122,0.184-3.5,0.664c-1.413,0.494-2.641,2.082-2.641,2.082c-0.107,0.154-0.226,0.324-0.329,0.476
		c-3.453,4.866-5.451,7.778-8.388,12.337c-0.055,0.078-0.105,0.162-0.156,0.24c-0.059,0.088-0.113,0.172-0.17,0.258
		c-2.952,4.495-4.799,7.492-7.803,12.54c0,0-0.834,1.951-0.881,3.447c-0.053,1.538,0.797,3.267,0.797,3.267l0,0
		c0.027,0.046,0.057,0.096,0.084,0.141c3.004,5.05,4.851,8.045,7.803,12.539c0.057,0.09,0.111,0.172,0.17,0.26
		c0.051,0.079,0.102,0.16,0.156,0.242c2.937,4.557,4.935,7.471,8.388,12.336c0.109,0.158,0.229,0.332,0.344,0.496
		c0.02,0.024,1.237,1.586,2.637,2.075c1.181,0.415,2.834,0.601,3.351,0.652c5.505,0.216,8.97,0.272,14.157,0.251
		c0.104,0,0.202,0,0.307,0c0.097,0,0.188,0,0.289,0c5.42,0.021,8.952-0.084,14.915-0.322c0.488-0.016,0.991-0.031,1.523-0.051
		c1.918,0,3.564-1.642,3.479-3.478v-0.983c-0.093-2.057-1.686-3.494-3.479-3.479c-0.455,0.005-2.032,0.026-4.058,0.056
		c-0.854,0.063-8.415,0.129-12.678,0.201c-2.114-0.035-5.039-0.045-7.552-0.072l0.004-0.002c-1.933-0.023-5.14-0.07-6.387-0.744
		c-1.336-0.722-3.091-3.262-3.885-4.445c-1.506-2.255-3.418-5.137-4.764-7.133c-0.98-1.563-2.299-3.641-3.518-5.557v-0.003
		c-0.287-0.476-0.843-1.322-1.354-2.294h48.902c1.918,0,3.479-1.558,3.479-3.477V53.77
		C271.598,51.853,270.036,50.291,268.118,50.291z"/>
	<path fill="#9E9E9F" d="M409.625,56.783c-0.01-1.734-0.019-4.58-0.019-6.315V25.509c0-1.735-1.418-3.155-3.153-3.155h-1.854
		c-1.736,0-3.153,1.42-3.145,3.155l0.068,21.852c-0.055,0.858-0.218,1.595-0.69,2.021c-0.39,0.355-1.137,0.492-1.881,0.538h-38.297
		c-0.898-0.028-1.893-0.142-2.273-0.541c-0.541-0.571-0.65-2.101-0.665-3.534l0.139-20.545c0.013-1.736-1.398-3.155-3.135-3.155
		h-1.853c-1.738,0-3.163,1.419-3.17,3.155l-0.081,24.923c-0.006,1.737-0.008,4.577-0.003,6.315l0.084,26.682
		c0.01,1.736,1.432,3.156,3.17,3.156h1.853c1.736,0,3.147-1.42,3.135-3.156l-0.143-22.645c0.056-0.898,0.229-1.662,0.747-2.145
		c0.513-0.471,1.811-0.561,2.778-0.571h36.71c0.736,0,2.201-0.014,2.85,0.597c0.695,0.658,0.774,2.009,0.762,3.648l0.024,15.514
		c0.002,1.735,1.425,3.156,3.161,3.156h1.854c1.738,0,3.148-1.421,3.139-3.156L409.625,56.783z"/>
	<g>
		<path fill="#9E9E9F" d="M167.385,44.119C168.97,42.76,168.748,42.951,167.385,44.119L167.385,44.119z"/>
		<path fill="#9E9E9F" d="M167.166,44.305c-0.006,0.009-0.014,0.014-0.023,0.021c0.085-0.072,0.167-0.142,0.242-0.206
			C167.313,44.182,167.247,44.236,167.166,44.305z"/>
		<path fill="#9E9E9F" d="M490.693,116.228c-1.947-0.222-5.567,0.441-9.864,1.515c-6.048,1.511-14.262,2.742-15.667,2.906
			c-0.642,0.075-1.652,0.164-2.797,0.164c-2.646,0-4.903-0.479-5.826-1.316l-0.502-0.453c-2.668-2.393-4.547-4.456-5.583-11.486
			c-1.111-7.538,2.267-12.46,4.382-14.195c2.109-1.415,14.64-3.382,19.518-4.123c2.875-0.438,4.213-0.753,5.342-1.004
			c6.225-1.129,8.09-1.594,9.728-3.473c1.299-1.488,1.434-3.119,1.093-4.848c-0.514-2.611-2.239-4.353-3.906-5.777
			c-2.509-2.146-8.48-5.677-17.028-8.263c-5.171-1.565-12.406-2.745-20.153-2.745c-7.18,0-15.705,1.484-22.078,5.016
			c-6.816,3.781-12.479,10.35-17.624,15.629c-3.007,3.084-4.991,5.897-8.456,7.112c-1.547,0.544-5.593,1.214-16.725,1.214H83.287
			c9.178-7.424,25.654-20.747,33.252-26.857c6.901-5.553,23.299-18.534,34.245-27.153c0.003-0.001,0.005-0.003,0.005-0.003
			c0.529-0.418,1.044-0.82,1.543-1.216c1.199-0.909,2.503-1.755,3.214-1.506c0.888,0.309,0.818,1.448,0.83,3.155l-0.04,13.328v1.742
			c-7.836,6.719-16.57,14.205-16.57,14.205c-0.709,0.605-1.13,1.446-1.19,2.369c-0.06,0.922,0.248,1.811,0.871,2.5l0.727,0.808
			c0.669,0.741,1.64,1.169,2.659,1.169c0.846,0,1.66-0.293,2.297-0.828c0,0,5.024-4.248,11.207-9.479v19.455
			c0,1.918,1.561,3.479,3.479,3.479h1.211c1.917,0,3.479-1.561,3.479-3.479V57.424c2.829-2.393,5.572-4.711,7.901-6.682
			c4.254-3.598,9.459-8.063,13.994-11.887l0,0c1.389-1.088,3.629-3.047,4.679-2.682c0.882,0.307,0.787,1.413,0.799,3.105
			l0.021,13.079v31.431c0,1.918,1.563,3.479,3.477,3.479h1.215c1.917,0,3.478-1.561,3.478-3.479V50.566v-1.084
			c0.002,0.293,0.251-9.613,0.039-20.332c-0.06-3.029-1.019-4.68-3.183-5.468c-2.147-0.78-4.661-0.087-6.762,1.425
			c-0.052,0.05-0.06,0.055-0.058,0.055c-7.969,6.635-30.202,25.371-22.962,19.163c-0.676,0.583-1.572,1.349-2.639,2.264v-1.327
			l-0.126-13.622c-0.009-0.315-0.007-0.609-0.025-0.894c-0.196-2.717-0.729-3.834-2.111-5.046c-1.829-1.602-5.245-2.116-8.479,0.173
			c-0.002,0.002-0.004,0.004-0.004,0.004c-9.602,7.596-35.763,28.076-42.353,33.311c-8.11,6.445-44.957,36.409-44.957,36.409
			c-0.004,0.005-0.009,0.012-0.014,0.015c-4.223,3.271-6.656,8.551-6.656,14.636v0.507c0,10.203,6.841,18.151,17.496,18.151
			l313.42,0.002c12.934,0,16.05,2.261,21.133,5.999c3.937,2.953,13.28,10.289,18.46,12.535c2.412,1.045,10.097,4.393,19.999,4.393
			c0.004,0,0.004,0,0.006,0c3.357,0,6.54-0.324,9.456-0.967c14.159-3.114,21.99-9.643,27.435-15.116
			c5.858-5.888,7.489-9.695,8.027-12.708C495.497,121.457,495.309,116.751,490.693,116.228z M486.831,126.43
			c-1.278,1.586-2.701,3.164-4.072,4.363c-5.221,4.565-11.691,10.596-24.46,13.405c-2.442,0.538-5.135,0.81-8.007,0.81h-0.006
			c-8.062,0-14.698-2.791-17.109-3.838c-2.812-1.217-11.144-7.616-15.991-11.256c-5.604-4.147-7.038-7.6-25.011-7.625
			l-314.157-0.003c-6.951,0-10.816-4.995-10.816-11.532v-0.507c0-6.536,3.865-11.53,10.816-11.53h306.527
			c13.112,0,17.404-0.561,20.065-1.776c3.515-1.604,6.306-4.437,10.136-8.364c4.838-4.965,10.12-11.145,16.079-14.449
			c3.934-2.18,9.707-4.171,18.603-4.171c7.073,0,13.768,1.233,18.363,2.5c3.437,0.95,6.026,1.853,8.065,2.704
			c0.376,0.162,0.739,0.318,1.086,0.469c0.073,0.035,0.161,0.073,0.237,0.105c0.006,0.004,0.013,0.006,0.019,0.012
			c1.243,0.57,2.25,1.119,3.102,1.632c1.218,0.817,1.819,1.621,1.723,2.548c-0.098,0.93-0.567,1.547-2.361,1.957
			c-0.482,0.102-0.972,0.197-1.468,0.285c-0.275,0.046-0.564,0.094-0.888,0.146c-0.946,0.142-2.182,0.289-4.175,0.591
			c-13.631,2.074-20.15,3.217-22.717,5.322c-4.554,3.729-8.127,11.158-6.784,20.282c1.38,9.387,4.701,12.745,7.71,15.441
			l0.479,0.429c2.233,2.026,5.853,3.054,10.334,3.054c1.475,0,2.765-0.116,3.59-0.213c1.534-0.183,7.68-1.296,16.377-3.403
			c0.565-0.139,1.122-0.283,1.669-0.436h-0.003c0.023-0.007,0.057-0.017,0.082-0.021c0.122-0.035,0.239-0.07,0.356-0.102
			c0.978-0.27,2.395-0.479,3.018,0.248C487.717,124.061,487.992,125.004,486.831,126.43z"/>
	</g>
	<g>
		<g>
			<path fill="#9E9E9F" d="M79.65,135.891h-0.26h-1.91h-0.193l-0.055,0.186l-0.713,2.725l-0.712-2.725l-0.054-0.186h-0.193h-1.91
				h-0.264v0.262v8.139v0.262h0.264h1.235h0.261v-0.262v-5.282l0.631,2.712l0.053,0.19h0.197h0.986h0.197l0.052-0.19l0.629-2.712
				v5.282v0.262h0.263h1.236h0.26v-0.262v-8.139V135.891L79.65,135.891z"/>
		</g>
		<g>
			<path fill="#9E9E9F" d="M87.477,135.891h-0.259H82.34h-0.259v0.262v8.139v0.262h0.259h5.023h0.258v-0.262v-1.127v-0.26h-0.258
				h-3.524v-2.036h2.909h0.259v-0.26v-1.131v-0.259h-0.259h-2.909v-1.68h3.379h0.259v-0.259v-1.128V135.891L87.477,135.891z"/>
		</g>
		<g>
			<path fill="#9E9E9F" d="M92.623,135.784c-1.915,0-3.059,1.667-3.059,4.461c0,2.137,0.803,4.417,3.059,4.417
				c1.378,0,2.457-1.002,2.457-2.278v-0.258h-0.258h-1.238h-0.242l-0.018,0.239c-0.024,0.369-0.346,0.649-0.749,0.649
				c-1.193,0-1.253-2.356-1.253-2.827c0-0.461,0.06-2.756,1.253-2.756c0.349,0,0.72,0.198,0.749,0.575l0.018,0.244h0.242h1.238
				h0.258v-0.263C95.08,136.754,94.001,135.784,92.623,135.784L92.623,135.784z"/>
		</g>
		<g>
			<path fill="#9E9E9F" d="M103.077,135.891h-0.258h-1.238h-0.26v0.262v3.09h-2.194v-3.09v-0.262h-0.26h-1.236h-0.262v0.262v8.139
				v0.262h0.262h1.236h0.26v-0.262v-3.401h2.194v3.401v0.262h0.26h1.238h0.258v-0.262v-8.139V135.891L103.077,135.891z"/>
		</g>
		<g>
			<path fill="#9E9E9F" d="M109.258,135.891h-0.2h-1.572h-0.199l-0.052,0.19l-2.221,8.144l-0.09,0.328h0.34h1.249h0.202l0.052-0.195
				l0.526-2.146h1.947l0.54,2.146l0.05,0.195h0.203h1.247h0.342l-0.09-0.328l-2.222-8.144L109.258,135.891L109.258,135.891z
				 M107.713,140.561l0.563-2.244l0.56,2.244H107.713L107.713,140.561z"/>
		</g>
		<g>
			<path fill="#9E9E9F" d="M119.346,135.891h-0.261h-1.131h-0.26v0.262v4.805l-2.34-4.917l-0.069-0.149h-0.162h-1.443h-0.26v0.262
				v8.139v0.262h0.26h1.13h0.261v-0.262v-5.05l2.436,5.163l0.069,0.148h0.164h1.346h0.261v-0.262v-8.139V135.891L119.346,135.891z"
				/>
		</g>
		<g>
			<path fill="#9E9E9F" d="M126.107,135.891h-0.261h-3.676h-0.259v0.262v1.128v0.259h0.259h0.967v5.365h-1.205h-0.259v0.26v1.127
				v0.262h0.259h4.166h0.26v-0.262v-1.127v-0.26h-0.26h-1.205v-5.365h0.953h0.261v-0.259v-1.128V135.891L126.107,135.891z"/>
		</g>
		<g>
			<path fill="#9E9E9F" d="M131.584,135.784c-1.915,0-3.059,1.667-3.059,4.461c0,2.137,0.804,4.417,3.059,4.417
				c1.379,0,2.459-1.002,2.459-2.278v-0.258h-0.263h-1.235h-0.241l-0.018,0.239c-0.026,0.369-0.348,0.649-0.749,0.649
				c-1.194,0-1.254-2.356-1.254-2.827c0-0.461,0.06-2.756,1.254-2.756c0.352,0,0.721,0.198,0.749,0.575l0.018,0.244h0.241h1.235
				h0.263v-0.263C134.043,136.754,132.963,135.784,131.584,135.784L131.584,135.784z"/>
		</g>
		<g>
			<path fill="#9E9E9F" d="M140.046,135.891h-0.2h-1.57h-0.197l-0.055,0.19l-2.223,8.144l-0.088,0.328h0.34h1.249h0.204l0.049-0.195
				l0.528-2.146h1.945l0.542,2.146l0.049,0.195h0.203h1.246h0.341l-0.09-0.328l-2.221-8.144L140.046,135.891L140.046,135.891z
				 M138.5,140.561l0.567-2.244l0.555,2.244H138.5L138.5,140.561z"/>
		</g>
		<g>
			<path fill="#9E9E9F" d="M146.141,135.891h-0.261h-1.238h-0.259v0.262v8.139v0.262h0.259h5.405h0.26v-0.262v-1.127v-0.26h-0.26
				h-3.906v-6.752V135.891L146.141,135.891z"/>
		</g>
		<g>
			<path fill="#9E9E9F" d="M160.605,135.891h-0.258h-4.878h-0.259v0.262v8.139v0.262h0.259h5.021h0.261v-0.262v-1.127v-0.26h-0.261
				h-3.524v-2.036h2.911h0.26v-0.26v-1.131v-0.259h-0.26h-2.911v-1.68h3.382h0.258v-0.259v-1.128V135.891L160.605,135.891z"/>
		</g>
		<g>
			<path fill="#9E9E9F" d="M168.67,135.891h-0.26h-1.125h-0.26v0.262v5.178l-2.342-5.29l-0.071-0.149h-0.162h-1.442h-0.259v0.262
				v8.139v0.262h0.259h1.129h0.259v-0.262v-5.42l2.437,5.533l0.07,0.148h0.166h1.342h0.26v-0.262v-8.139V135.891L168.67,135.891z"/>
		</g>
		<g>
			<path fill="#9E9E9F" d="M173.983,135.784c-2.3,0-3.515,1.53-3.515,4.425c0,2.873,1.202,4.453,3.392,4.453
				c0.782,0,1.651-0.182,2.445-0.512l0.159-0.067v-0.173v-3.975v-0.26h-0.262h-2.919h-0.26v0.26v1.127v0.262h0.26h1.421v1.573
				c-0.245,0.077-0.486,0.117-0.737,0.117c-1.221,0-1.744-0.872-1.744-2.911c0-1.897,0.509-2.672,1.76-2.672
				c0.533,0,0.664,0.141,0.732,0.416l0.05,0.197h0.201h1.236h0.262v-0.262v-0.094C176.465,136.692,175.281,135.784,173.983,135.784
				L173.983,135.784z"/>
		</g>
		<g>
			<path fill="#9E9E9F" d="M183.236,135.891h-0.259h-3.676h-0.257v0.262v1.128v0.259h0.257h0.966v5.365h-1.207h-0.259v0.26v1.127
				v0.262h0.259h4.168h0.261v-0.262v-1.127v-0.26h-0.261h-1.204v-5.365h0.953h0.259v-0.259v-1.128V135.891L183.236,135.891z"/>
		</g>
		<g>
			<path fill="#9E9E9F" d="M191.199,135.891h-0.261h-1.132h-0.259v0.262v5.175l-2.34-5.287l-0.069-0.149h-0.164h-1.441h-0.26v0.262
				v8.139v0.262h0.26h1.129h0.259v-0.262v-5.42l2.438,5.533l0.066,0.148h0.165h1.348h0.261v-0.262v-8.139V135.891L191.199,135.891z"
				/>
		</g>
		<g>
			<path fill="#9E9E9F" d="M198.796,135.891h-0.26h-4.876h-0.26v0.262v8.139v0.262h0.26h5.02h0.26v-0.262v-1.127v-0.26h-0.26h-3.524
				v-2.036h2.91h0.261v-0.26v-1.131v-0.259h-0.261h-2.91v-1.68h3.381h0.26v-0.259v-1.128V135.891L198.796,135.891z"/>
		</g>
		<g>
			<path fill="#9E9E9F" d="M206.636,135.891h-0.262h-4.876h-0.261v0.262v8.139v0.262h0.261h5.02h0.26v-0.262v-1.127v-0.26h-0.26
				h-3.522v-2.036h2.912h0.257v-0.26v-1.131v-0.259h-0.257h-2.912v-1.68h3.379h0.262v-0.259v-1.128V135.891L206.636,135.891z"/>
		</g>
		<g>
			<path fill="#9E9E9F" d="M211.644,135.891h-2.366h-0.261v0.262v8.139v0.262h0.261h1.235h0.261v-0.262v-3.111h0.571l1.788,3.24
				l0.075,0.133h0.152h1.417h0.455l-0.23-0.391l-1.953-3.332c0.9-0.322,1.484-1.207,1.484-2.301
				C214.533,136.902,213.427,135.891,211.644,135.891L211.644,135.891z M210.773,137.539h0.641c1.031,0,1.365,0.229,1.365,0.943
				c0,0.792-0.332,1.048-1.352,1.048h-0.654V137.539L210.773,137.539z"/>
		</g>
		<g>
			<path fill="#9E9E9F" d="M221.086,135.891h-0.259h-3.675h-0.259v0.262v1.128v0.259h0.259h0.965v5.365h-1.204h-0.263v0.26v1.127
				v0.262h0.263h4.167h0.258v-0.262v-1.127v-0.26h-0.258h-1.206v-5.365h0.953h0.259v-0.259v-1.128V135.891L221.086,135.891z"/>
		</g>
		<g>
			<path fill="#9E9E9F" d="M229.593,135.891h-0.257h-1.128h-0.26v0.262v5.178l-2.339-5.29l-0.073-0.149h-0.162h-1.443h-0.26v0.262
				v8.139v0.262h0.26h1.13h0.262v-0.262v-5.42l2.434,5.533l0.07,0.148h0.164h1.346h0.257v-0.262v-8.139V135.891L229.593,135.891z"/>
		</g>
		<g>
			<path fill="#9E9E9F" d="M234.558,135.784c-2.3,0-3.516,1.53-3.516,4.425c0,2.873,1.204,4.453,3.396,4.453
				c0.781,0,1.65-0.182,2.441-0.512l0.16-0.067v-0.173v-3.975v-0.26h-0.26h-2.918h-0.261v0.26v1.127v0.262h0.261h1.422v1.573
				c-0.25,0.077-0.492,0.117-0.738,0.117c-1.223,0-1.746-0.872-1.746-2.911c0-1.897,0.51-2.672,1.759-2.672
				c0.53,0,0.663,0.141,0.732,0.416l0.049,0.197h0.204h1.236h0.26v-0.262v-0.094C237.039,136.692,235.855,135.784,234.558,135.784
				L234.558,135.784z"/>
		</g>
		<g>
			<path fill="#9E9E9F" d="M246.369,135.133c-1.313,0-2.709,0.791-2.709,2.256c0,0.775,0.457,1.584,0.908,2.244
				c-0.751,0.588-1.21,1.463-1.21,2.344c0,1.58,1.193,2.686,2.903,2.686c0.631,0,1.132-0.109,1.581-0.352l0.108,0.143l0.08,0.1
				h0.127h1.501h0.515l-0.304-0.414l-0.757-1.028c0.434-0.695,0.698-1.851,0.698-2.598v-0.206v-0.261h-0.26h-1.239h-0.258v0.261
				v0.275c0,0.329-0.03,0.658-0.088,0.971l-1.164-1.6l0.502-0.375c0.684-0.504,1.592-1.295,1.592-2.35
				C248.896,135.918,247.612,135.133,246.369,135.133L246.369,135.133z M245.887,138.699c-0.201-0.279-0.471-0.703-0.471-1.034
				c0-0.527,0.349-0.882,0.868-0.882c0.202,0,0.858,0.046,0.858,0.629c0,0.369-0.635,0.83-1.057,1.139
				C246.017,138.602,245.949,138.65,245.887,138.699L245.887,138.699z M246.43,143.015c-0.634,0-1.313-0.364-1.313-1.159
				c0-0.294,0.186-0.6,0.396-0.83l1.366,1.918C246.738,142.988,246.584,143.015,246.43,143.015L246.43,143.015z"/>
		</g>
		<g>
			<path fill="#9E9E9F" d="M261.857,135.891h-0.26h-1.908h-0.193l-0.055,0.186l-0.714,2.725l-0.71-2.725l-0.057-0.186h-0.193h-1.909
				h-0.26v0.262v8.139v0.262h0.26h1.236h0.261v-0.262v-5.282l0.628,2.712l0.053,0.19h0.199h0.984h0.199l0.052-0.19l0.63-2.712v5.282
				v0.262h0.263h1.234h0.26v-0.262v-8.139V135.891L261.857,135.891z"/>
		</g>
		<g>
			<path fill="#9E9E9F" d="M269.761,135.891h-0.26h-4.878h-0.256v0.262v8.139v0.262h0.256h5.022h0.26v-0.262v-1.127v-0.26h-0.26
				h-3.522v-2.036h2.911h0.259v-0.26v-1.131v-0.259h-0.259h-2.911v-1.68h3.378h0.26v-0.259v-1.128V135.891L269.761,135.891z"/>
		</g>
		<g>
			<path fill="#9E9E9F" d="M274.905,135.784c-1.914,0-3.055,1.667-3.055,4.461c0,2.137,0.802,4.417,3.055,4.417
				c1.382,0,2.458-1.002,2.458-2.278v-0.258h-0.258h-1.235h-0.244l-0.018,0.239c-0.025,0.369-0.348,0.649-0.749,0.649
				c-1.19,0-1.254-2.356-1.254-2.827c0-0.461,0.063-2.756,1.254-2.756c0.353,0,0.722,0.198,0.749,0.575l0.018,0.244h0.244h1.235
				h0.258v-0.263C277.363,136.754,276.287,135.784,274.905,135.784L274.905,135.784z"/>
		</g>
		<g>
			<path fill="#9E9E9F" d="M285.362,135.891h-0.259h-1.239h-0.259v0.262v3.09h-2.195v-3.09v-0.262h-0.259h-1.236h-0.26v0.262v8.139
				v0.262h0.26h1.236h0.259v-0.262v-3.401h2.195v3.401v0.262h0.259h1.239h0.259v-0.262v-8.139V135.891L285.362,135.891z"/>
		</g>
		<g>
			<path fill="#9E9E9F" d="M291.542,135.891h-0.199h-1.573h-0.197l-0.053,0.19l-2.222,8.144l-0.09,0.328h0.34h1.251h0.205
				l0.047-0.195l0.526-2.146h1.95l0.537,2.146l0.049,0.195h0.202h1.251h0.34l-0.09-0.328l-2.223-8.144L291.542,135.891
				L291.542,135.891z M289.995,140.561l0.566-2.244l0.558,2.244H289.995L289.995,140.561z"/>
		</g>
		<g>
			<path fill="#9E9E9F" d="M301.629,135.891h-0.26h-1.128h-0.26v0.262v5.175l-2.339-5.287l-0.07-0.149h-0.166h-1.442h-0.256v0.262
				v8.139v0.262h0.256h1.131h0.26v-0.262v-5.42l2.434,5.533l0.072,0.148h0.162h1.347h0.26v-0.262v-8.139V135.891L301.629,135.891z"
				/>
		</g>
		<g>
			<path fill="#9E9E9F" d="M306.912,135.784c-2.287,0-3.142,2.714-3.142,4.425c0,1.791,0.837,4.453,3.142,4.453
				c2.307,0,3.143-2.662,3.143-4.453C310.055,138.498,309.201,135.784,306.912,135.784L306.912,135.784z M306.912,143.015
				c-1.283,0-1.383-2.101-1.383-2.743c0-0.854,0.132-2.84,1.383-2.84c1.287,0,1.388,2.174,1.388,2.84
				C308.3,140.729,308.233,143.015,306.912,143.015L306.912,143.015z"/>
		</g>
		<g>
			<path fill="#9E9E9F" d="M317.408,139.338h-0.26h-4.396h-0.26v0.26v1.237v0.258h0.26h4.396h0.26v-0.258v-1.237V139.338
				L317.408,139.338z"/>
		</g>
		<g>
			<path fill="#9E9E9F" d="M324.157,135.891h-0.259h-3.677h-0.26v0.262v1.128v0.259h0.26h0.965v5.365h-1.204h-0.262v0.26v1.127
				v0.262h0.262h4.166h0.261v-0.262v-1.127v-0.26h-0.261h-1.205v-5.365h0.955h0.259v-0.259v-1.128V135.891L324.157,135.891z"/>
		</g>
		<g>
			<path fill="#9E9E9F" d="M332.907,135.891h-0.259h-1.129h-0.26v0.262v5.175l-2.34-5.287l-0.072-0.149h-0.161h-1.443h-0.257v0.262
				v8.139v0.262h0.257h1.128h0.264v-0.262v-5.42l2.434,5.533l0.068,0.148h0.166h1.346h0.259v-0.262v-8.139V135.891L332.907,135.891z
				"/>
		</g>
		<g>
			<path fill="#9E9E9F" d="M340.509,135.891h-0.261h-4.277h-0.259v0.262v8.139v0.262h0.259h1.237h0.258v-0.262v-3.423h2.193h0.261
				v-0.26v-1.131v-0.259h-0.261h-2.193v-1.68h2.782h0.261v-0.259v-1.128V135.891L340.509,135.891z"/>
		</g>
		<g>
			<path fill="#9E9E9F" d="M344.889,135.784c-2.288,0-3.14,2.714-3.14,4.425c0,1.791,0.835,4.453,3.14,4.453
				c2.307,0,3.147-2.662,3.147-4.453C348.036,138.498,347.178,135.784,344.889,135.784L344.889,135.784z M344.889,143.015
				c-1.285,0-1.382-2.101-1.382-2.743c0-0.854,0.134-2.84,1.382-2.84c1.287,0,1.387,2.174,1.387,2.84
				C346.275,140.729,346.211,143.015,344.889,143.015L344.889,143.015z"/>
		</g>
		<g>
			<path fill="#9E9E9F" d="M352.478,135.891h-2.368h-0.257v0.262v8.139v0.262h0.257h1.239h0.26v-0.262v-3.111h0.572l1.786,3.24
				l0.075,0.133h0.153h1.417h0.453l-0.23-0.391l-1.953-3.332c0.902-0.322,1.485-1.207,1.485-2.301
				C355.367,136.902,354.26,135.891,352.478,135.891L352.478,135.891z M351.608,137.539h0.641c1.031,0,1.364,0.229,1.364,0.943
				c0,0.792-0.329,1.048-1.352,1.048h-0.653V137.539L351.608,137.539z"/>
		</g>
		<g>
			<path fill="#9E9E9F" d="M363.901,135.891h-0.259h-1.909h-0.193l-0.055,0.186l-0.714,2.725l-0.712-2.725l-0.054-0.186h-0.193
				h-1.909h-0.261v0.262v8.139v0.262h0.261h1.234h0.262v-0.262v-5.282l0.631,2.712l0.052,0.19h0.198h0.982h0.202l0.052-0.19
				l0.631-2.712v5.282v0.262h0.261h1.234h0.259v-0.262v-8.139V135.891L363.901,135.891z"/>
		</g>
		<g>
			<path fill="#9E9E9F" d="M369.842,135.891h-0.197h-1.575h-0.198l-0.052,0.19l-2.223,8.144l-0.087,0.328h0.338h1.251h0.205
				l0.047-0.195l0.527-2.146h1.948l0.541,2.146l0.046,0.195h0.205h1.246h0.343l-0.092-0.328l-2.221-8.144L369.842,135.891
				L369.842,135.891z M368.296,140.561l0.564-2.244l0.56,2.244H368.296L368.296,140.561z"/>
		</g>
		<g>
			<path fill="#9E9E9F" d="M378.969,135.891h-0.261h-5.633h-0.26v0.262v1.128v0.259h0.26h1.938v6.752v0.262h0.262h1.236h0.263
				v-0.262v-6.752h1.935h0.261v-0.259v-1.128V135.891L378.969,135.891z"/>
		</g>
		<g>
			<path fill="#9E9E9F" d="M385.02,135.891h-0.263h-3.673h-0.262v0.262v1.128v0.259h0.262h0.965v5.365h-1.205h-0.262v0.26v1.127
				v0.262h0.262h4.166h0.262v-0.262v-1.127v-0.26h-0.262h-1.205v-5.365h0.952h0.263v-0.259v-1.128V135.891L385.02,135.891z"/>
		</g>
		<g>
			<path fill="#9E9E9F" d="M390.459,135.784c-1.914,0-3.058,1.667-3.058,4.461c0,2.137,0.804,4.417,3.058,4.417
				c1.379,0,2.458-1.002,2.458-2.278v-0.258h-0.26h-1.236h-0.245l-0.014,0.241c-0.025,0.367-0.349,0.647-0.754,0.647
				c-1.189,0-1.252-2.356-1.252-2.827c0-0.461,0.063-2.756,1.252-2.756c0.347,0,0.725,0.2,0.754,0.575l0.014,0.244h0.245h1.236h0.26
				v-0.263C392.917,136.754,391.838,135.784,390.459,135.784L390.459,135.784z"/>
		</g>
		<g>
			<path fill="#9E9E9F" d="M397.771,135.784c-1.607,0-2.769,1.059-2.769,2.517c0,1.443,1.204,2.022,2.005,2.408l0.227,0.104
				c0.919,0.422,1.478,0.725,1.478,1.332c0,0.805-0.833,0.87-1.086,0.87c-0.645,0-1.052-0.377-1.062-0.983l-0.002-0.255h-0.257
				h-1.239h-0.26v0.259v0.252c0,1.486,1.434,2.375,2.819,2.375c1.377,0,2.841-0.887,2.841-2.531c0-1.537-1.085-2.188-2.2-2.721
				l-0.723-0.336c-0.553-0.257-0.787-0.52-0.787-0.881c0-0.507,0.332-0.762,0.987-0.762c0.311,0,0.575,0.094,0.73,0.258
				c0.113,0.124,0.167,0.293,0.152,0.498l-0.021,0.276h0.279h1.238h0.261v-0.259v-0.158
				C400.385,136.692,399.031,135.784,397.771,135.784L397.771,135.784z"/>
		</g>
	</g>
</g>
</svg>
