<svg xmlns="http://www.w3.org/2000/svg" viewBox="0 0 30 38"><path d="M15 .53C10.94.53 7.46 1.97 4.66 4.8A13.95 13.95 0 0 0 .4 13.79c-.03.4-.03.83-.03 1.33 0 4.06 1.44 7.54 4.27 10.34.95.97 2 1.8 3.15 2.44l-.5.4a.68.68 0 0 0-.2 1.1l1.16 1.17L7.1 31.7a.68.68 0 0 0 0 .97l1.16 1.16L7.17 35a.68.68 0 0 0 .2 1.08l2.83 1.32c.1.04.2.06.3.06h9c.1 0 .2-.02.3-.06l2.81-1.32a.68.68 0 0 0 .2-1.08l-1.09-1.16 1.17-1.17a.68.68 0 0 0 0-.97l-1.16-1.15 1.16-1.16a.68.68 0 0 0-.05-1l-.61-.51a15.66 15.66 0 0 0 3.09-2.42c2.85-2.83 4.3-6.31 4.3-10.35 0-4.02-1.45-7.5-4.3-10.32A14.11 14.11 0 0 0 15 .53zm0 1.37c3.69 0 6.75 1.26 9.36 3.87 2.58 2.56 3.9 5.7 3.9 9.35 0 3.66-1.32 6.82-3.9 9.38a13.76 13.76 0 0 1-3.65 2.66.68.68 0 0 0-.13 1.14l.81.67-1.1 1.1a.68.68 0 0 0 0 .97l1.15 1.16-1.16 1.15a.68.68 0 0 0 0 .96l.9.95-1.82.84h-8.72l-1.82-.85.89-.95c.12-.12.18-.29.18-.46v-.03a.68.68 0 0 0-.2-.48L8.56 32.2l1.13-1.13c.13-.13.2-.33.2-.51a.69.69 0 0 0-.2-.48l-1.06-1.09.11-.09.03-.03.32-.3c.44-.4.68-.63.5-1.08a.68.68 0 0 0-.34-.36 12.9 12.9 0 0 1-3.63-2.63 12.58 12.58 0 0 1-3.87-9.38c0-.49 0-.88.02-1.23a12.46 12.46 0 0 1 3.85-8.13A12.58 12.58 0 0 1 15 1.9zm.22 6.3c-1.63 0-3.06.41-4.26 1.21-1.24.83-1.89 1.93-1.89 3.2 0 .97.37 1.8 1.07 2.5a5.34 5.34 0 0 0-.8 1.05c-.18.44-.27.88-.27 1.42 0 1.25.64 2.34 1.84 3.16a1.97 1.97 0 0 0 .46.3h.03c1.14.63 2.42.94 3.82.94 1.36 0 2.62-.3 3.75-.89a.83.83 0 0 0 .36-.27.68.68 0 0 0-.96-.96c-.94.5-2 .75-3.15.75a6.6 6.6 0 0 1-3.5-.98c-.85-.56-1.28-1.25-1.28-2.05 0-.34.04-.59.14-.84.17-.28.38-.54.62-.78l.03.02c.93.55 1.98.88 3.16.97l.58.03h.66c.04 0 .09 0 .13-.02h.08c.28-.02.58-.06.89-.13.2-.04.46-.12.78-.25 1.12-.43 1.29-1.13 1.29-1.52 0-.37-.17-1.05-1.27-1.47a5.38 5.38 0 0 0-1.03-.31h-.01-.01a7.43 7.43 0 0 0-1.26-.13c-.31 0-.63.04-.99.09l-.2.03H14 14a7.88 7.88 0 0 0-2.75.93l-.06.03c-.5-.45-.75-.98-.75-1.62 0-.8.43-1.5 1.28-2.06a6.19 6.19 0 0 1 3.5-.98c1.26 0 2.36.27 3.26.81a.68.68 0 0 0 .7-1.18 7.63 7.63 0 0 0-3.96-1zm0 6.37c.38 0 .73 0 1.03.05.27.06.52.13.77.24.25.09.36.17.4.22-.04.04-.14.13-.4.23-.36.14-.51.17-.55.17l-.05.02c-.24.05-.46.08-.66.08-.04 0-.08 0-.13.02l-.07.01h-.48l-.6-.02a5.96 5.96 0 0 1-1.98-.49 6.87 6.87 0 0 1 1.68-.48h.02a7.7 7.7 0 0 1 1.02-.05zm-3.36 12.85a.41.41 0 1 0 0 .82h6.28a.41.41 0 0 0 0-.82zm0 3a.41.41 0 1 0 0 .82h6.28a.4.4 0 1 0 0-.82zm0 3a.4.4 0 1 0 0 .82h6.28a.4.4 0 1 0 0-.81z"/></svg>