<svg xmlns="http://www.w3.org/2000/svg" viewBox="0 0 150 150"><path d="M0 0h150v150H0z" fill="#fff"/><path d="M98.94 122.75c-1.17-.84-1.93-1.26-2.52-1.84-4.04-4-4.03-4.05-.01-8.06 1.72-1.73 1.72-1.73-.2-3.32-2.77-2.29-2.61-3.7.49-5.5 13.8-8.03 23.26-19.23 25.72-35.47 1.28-8.39.9-16.73-2.4-24.57-6.78-16.13-18.5-26.7-35.98-30.12-10.34-2.03-20.58-1.18-29.91 3.8-17.18 9.13-27.03 23.13-27.1 43.2-.06 13.43 4.69 24.77 14.16 34.2a49.2 49.2 0 0 0 12.62 9.14c2.03 1.03 2.42 2.62 1.1 4.22-.86 1.02-2.47 2.12-2.36 3.04.11 1.08 1.7 2 2.66 3l.25.26c1.37 1.53 1.39 2.97-.12 4.39-1.2 1.14-2.56 2.14-4.2 3.49 1.74 1.54 2.95 2.53 4.05 3.62 1.66 1.65 1.65 3.1.08 4.87l-2.69 2.96c2.88 1.07 5.43 2.77 8.04 2.86 9.6.33 19.2.2 28.8.09 2.88-.03 5.1-1.96 7.58-3.04-.1-.37-.1-.44-.13-.48l-2.42-2.66c-1.3-1.44-1.31-2.86.11-4.24 1.24-1.2 2.59-2.28 4.38-3.85zm2.55-15.58c.67.63 1.17 1.11 1.68 1.57 1.46 1.32 1.56 2.77.23 4.23-.85.93-1.72 1.86-2.68 2.66-1.14.96-1.02 1.69.07 2.58.88.72 1.65 1.58 2.43 2.4 1.5 1.58 1.51 2.83.04 4.4-.82.87-1.64 1.77-2.55 2.53-1.08.9-1.22 1.61-.07 2.58.92.76 1.68 1.71 2.47 2.61 1.47 1.68 1.16 3.43-.82 4.37-2.97 1.43-5.93 2.87-8.95 4.17a8.65 8.65 0 0 1-3.3.69c-9.84.05-19.68.06-29.52-.02-1.45 0-2.97-.4-4.31-.95a136.78 136.78 0 0 1-8.48-3.9c-2.04-1-2.27-2.83-.7-4.52.5-.52.96-1.07 1.44-1.6 2-2.21 2-2.21-.15-4.37-3.56-3.57-3.55-3.99.06-7.62 2.32-2.34 2.45-1.72 0-4.19l-.5-.51c-3-3.02-3-3.53.12-6.35.17-.15.27-.37.51-.72C29.92 95.34 20.73 78.51 22.1 56.4c.84-13.54 6.86-24.67 16.52-34.1C58.33 3 94.07 2.4 114.52 25.58c7.14 8.08 11.68 17.3 13.03 28.05 1.33 10.67-.01 20.92-4.78 30.62-4.74 9.67-12.1 16.99-21.28 22.91zM83.22 60.68c-3.35-2.35-13.33-2.24-16.42.18 3.47 2.55 14.09 2.43 16.42-.18m-7.58 25.28c-6-.23-11.53-1.67-16.38-5.3-5.16-3.87-7.15-10.12-4.87-15.6.5-1.2 1.44-2.2 2.06-3.35.22-.4.36-1.21.13-1.48-5.67-6.58-3.36-16.4 4.98-20.76 9.3-4.86 18.69-4.99 28.08-.26 1.67.84 2.13 2.38 1.36 3.7-.7 1.19-2.2 1.4-3.83.61-7.82-3.77-15.63-3.77-23.26.43-2.65 1.46-4.95 3.53-5.27 6.86a9.59 9.59 0 0 0 .34 3.7c.88 2.79 1.96 3.18 4.6 1.94 5.43-2.55 11.18-3.1 17.01-2.33 1.94.26 3.9 1.24 5.6 2.3 3.6 2.26 3.52 6.6-.1 8.83-3.5 2.15-7.46 2.6-11.45 2.42-4.4-.18-8.67-.99-12.62-3.13-.38-.21-1.36.12-1.72.52-2.87 3.21-2.3 7.92 1.25 10.99a19.52 19.52 0 0 0 10.6 4.5c5.41.68 10.64.05 15.47-2.73 1.3-.76 2.76-.3 3.42.9.65 1.18.27 2.92-1.1 3.56a41.08 41.08 0 0 1-7.02 2.67c-2.36.6-4.85.7-7.28 1.01m-.55 44.75c-3.65 0-7.31-.02-10.97.01-1.27.01-2.07-.35-2.1-1.8-.03-1.5.73-1.95 2.12-1.94 7.25.03 14.5.02 21.76 0 1.26 0 2.06.37 2.1 1.79.04 1.5-.74 1.97-2.12 1.95-3.6-.04-7.2-.01-10.79-.01m12.72-14.5c.4 3.16-.04 3.7-2.84 3.7-6.7.02-13.4.02-20.1 0-2.11 0-3.13-.76-2.78-2.2.15-.58.92-1.44 1.41-1.44 8.07-.1 16.14-.07 24.3-.07m.13-7.83H62.18v-2.85h25.75z"/></svg>