<svg xmlns="http://www.w3.org/2000/svg" viewBox="256 256 1024 1024"><path d="M1280 768c0-282.77-229.23-512-512-512S256 485.23 256 768c0 255.554 187.231 467.3699 432 505.78008V916H558V768h130V655.2C688 526.88 764.438 456 881.39 456 937.407 456 996 466 996 466v126h-64.562C867.835 592 848 631.467 848 671.957V768h142l-22.7 148H848v357.78008C1092.769 1235.3699 1280 1023.554 1280 768" fill="#FFF"/><path d="M967.3 916L990 768H848v-96.043c0-40.49 19.835-79.957 83.438-79.957H996V466s-58.593-10-114.61-10C764.438 456 688 526.88 688 655.2V768H558v148h130v357.78008c26.067 4.08984 52.784 6.21992 80 6.21992s53.933-2.13008 80-6.21992V916h119.3" fill="transparent"/></svg>