<svg xmlns="http://www.w3.org/2000/svg" viewBox="0 0 495.14 194.32"><path d="M495.14 194.32H0V0h495.14z" fill="#fff"/><path d="M209.03 53.7h-12.85a3.57 3.57 0 0 0-3.57 3.56v79.8c0 1.97 1.6 3.56 3.57 3.56h12.85c1.97 0 3.57-1.6 3.57-3.56v-79.8c0-1.97-1.6-3.56-3.57-3.56M297.46 53.7H284.6a3.57 3.57 0 0 0-3.57 3.56v47.4l-36.57-49.38a3.35 3.35 0 0 0-.28-.36l-.02-.03a3.24 3.24 0 0 0-.21-.21l-.07-.06-.19-.17-.1-.07a4.14 4.14 0 0 0-.18-.12l-.1-.07-.2-.1-.11-.06-.2-.09-.12-.04a3.57 3.57 0 0 0-.34-.1l-.2-.04-.15-.03-.19-.02h-.19l-.12-.01h-12.84a3.57 3.57 0 0 0-3.57 3.56v79.8c0 1.97 1.6 3.56 3.57 3.56h12.84c1.97 0 3.57-1.6 3.57-3.56v-47.4l36.62 49.46a3.54 3.54 0 0 0 1.16 1.04l.1.05.17.09.17.07a6.02 6.02 0 0 0 .36.12l.05.01c.29.08.6.12.91.12h12.85c1.97 0 3.56-1.6 3.56-3.56v-79.8c0-1.97-1.6-3.56-3.56-3.56M178.06 120.64h-34.9V57.26c0-1.97-1.6-3.56-3.57-3.56h-12.85a3.57 3.57 0 0 0-3.57 3.56v79.8c0 .96.38 1.83 1 2.47l.05.05.05.05c.64.61 1.5 1 2.46 1h51.33c1.97 0 3.56-1.6 3.56-3.57V124.2c0-1.97-1.6-3.57-3.56-3.57M368.4 73.68c1.97 0 3.57-1.6 3.57-3.57V57.26c0-1.97-1.6-3.57-3.57-3.57h-51.32c-.97 0-1.84.39-2.48 1.01l-.04.04-.06.06c-.6.64-.98 1.5-.98 2.46v79.8c0 .96.38 1.83.99 2.47l.05.05.05.05c.64.61 1.51 1 2.47 1h51.32c1.97 0 3.57-1.6 3.57-3.58v-12.84c0-1.97-1.6-3.57-3.57-3.57h-34.9v-13.49h34.9c1.97 0 3.57-1.6 3.57-3.57V90.74c0-1.97-1.6-3.57-3.57-3.57h-34.9v-13.5z" fill="#00b934"/></svg>