<svg xmlns="http://www.w3.org/2000/svg" x="0px" y="0px" viewBox="0 0 549.382 166.58"><path d="M398.018 104.883H77.812c-2.321 0-3.467.686-3.467 2.076v1.035h327.14v-1.035c0-1.391-1.142-2.076-3.467-2.076zM74.796 112.77h-.451v1.065c0 1.37 1.057 2.067 3.176 2.128.084.01.182.013.291.013h320.206c2.325 0 3.468-.706 3.468-2.141v-1.065H74.796zm253.979-82.567c2.028.029 3.604.051 4.058.055 1.793.015 3.386-1.422 3.478-3.482v-.979c.085-1.836-1.561-3.479-3.478-3.479-.529-.018-1.036-.034-1.522-.049-5.962-.242-9.493-.327-14.916-.303h-.597c-5.14-.023-8.593.055-14.015.268-.104.006-2.127.184-3.502.664-1.412.494-2.64 2.082-2.64 2.082-.109.154-.226.324-.335.476-3.449 4.866-5.445 7.778-8.383 12.337-.056.078-.105.162-.158.24-.057.088-.111.172-.17.258-2.947 4.495-4.799 7.492-7.802 12.54 0 0-.833 1.951-.882 3.447-.051 1.538.797 3.267.797 3.267.027.046.057.096.085.141 3.003 5.05 4.854 8.045 7.802 12.539.059.09.113.172.17.26.053.079.103.16.158.242 2.938 4.557 4.934 7.471 8.383 12.336.112.158.235.332.348.496.021.024 1.236 1.586 2.637 2.075 1.181.415 2.834.601 3.349.652 5.507.216 8.974.272 14.158.251h.597c5.423.021 8.954-.084 14.916-.322.486-.016.993-.031 1.522-.051 1.917 0 3.563-1.642 3.478-3.478v-.983c-.092-2.057-1.685-3.494-3.478-3.479-.454.005-2.029.026-4.058.056-.853.063-8.416.129-12.678.201-2.115-.035-5.039-.045-7.555-.072l.006-.002c-1.932-.023-5.141-.07-6.383-.744-1.336-.722-3.094-3.262-3.889-4.445-1.502-2.255-3.418-5.137-4.764-7.133-.979-1.563-2.299-3.641-3.515-5.557 0 0 0-.002-.003-.003-.616-1.019-2.465-3.758-2.491-5.711-.021-1.806 1.134-4.237 2.704-7.154 1.156-1.818 2.382-3.75 3.305-5.224 1.336-1.979 3.227-4.828 4.725-7.074.777-1.159 2.565-3.771 3.925-4.502 1.243-.675 4.452-.721 6.386-.744 2.515-.027 5.436-.057 7.549-.092 4.262.07 11.826.115 12.678.179zm-60.657 20.088h-48.68c.39-.826.842-1.699 1.344-2.632 1.156-1.818 2.382-3.75 3.306-5.224 1.336-1.979 3.224-4.828 4.724-7.074.778-1.159 2.567-3.771 3.923-4.502 1.246-.675 4.454-.721 6.387-.744 2.514-.027 5.438-.036 7.55-.072 4.263.072 11.824.096 12.678.16 2.025.029 3.603.051 4.058.055 1.793.015 3.386-1.422 3.479-3.482v-.979c.086-1.836-1.561-3.479-3.479-3.479-.532-.018-1.035-.034-1.523-.049-5.963-.242-9.495-.303-14.915-.281h-.596c-5.142-.021-8.591.033-14.019.246-.101.006-2.122.184-3.5.664-1.413.494-2.641 2.082-2.641 2.082-.107.154-.226.324-.329.476-3.453 4.866-5.451 7.778-8.388 12.337-.055.078-.105.162-.156.24-.059.088-.113.172-.17.258-2.952 4.495-4.799 7.492-7.803 12.54 0 0-.834 1.951-.881 3.447-.053 1.538.797 3.267.797 3.267.027.046.057.096.084.141 3.004 5.05 4.851 8.045 7.803 12.539.057.09.111.172.17.26.051.079.102.16.156.242 2.937 4.557 4.935 7.471 8.388 12.336.109.158.229.332.344.496.02.024 1.237 1.586 2.637 2.075 1.181.415 2.834.601 3.351.652 5.505.216 8.97.272 14.157.251h.596c5.42.021 8.952-.084 14.915-.322.488-.016.991-.031 1.523-.051 1.918 0 3.564-1.642 3.479-3.478v-.983c-.093-2.057-1.686-3.494-3.479-3.479-.455.005-2.032.026-4.058.056-.854.063-8.415.129-12.678.201-2.114-.035-5.039-.045-7.552-.072l.004-.002c-1.933-.023-5.14-.07-6.387-.744-1.336-.722-3.091-3.262-3.885-4.445-1.506-2.255-3.418-5.137-4.764-7.133-.98-1.563-2.299-3.641-3.518-5.557v-.003c-.287-.476-.843-1.322-1.354-2.294h48.902c1.918 0 3.479-1.558 3.479-3.477v-.984c.001-1.917-1.561-3.479-3.479-3.479zm141.507 6.492c-.01-1.734-.019-4.58-.019-6.315V25.509c0-1.735-1.418-3.155-3.153-3.155h-1.854c-1.736 0-3.153 1.42-3.145 3.155l.068 21.852c-.055.858-.218 1.595-.69 2.021-.39.355-1.137.492-1.881.538h-38.297c-.898-.028-1.893-.142-2.273-.541-.541-.571-.65-2.101-.665-3.534l.139-20.545c.013-1.736-1.398-3.155-3.135-3.155h-1.853c-1.738 0-3.163 1.419-3.17 3.155l-.081 24.923c-.006 1.737-.008 4.577-.003 6.315l.084 26.682c.01 1.736 1.432 3.156 3.17 3.156h1.853c1.736 0 3.147-1.42 3.135-3.156l-.143-22.645c.056-.898.229-1.662.747-2.145.513-.471 1.811-.561 2.778-.571h36.71c.736 0 2.201-.014 2.85.597.695.658.774 2.009.762 3.648l.024 15.514c.002 1.735 1.425 3.156 3.161 3.156h1.854c1.738 0 3.148-1.421 3.139-3.156l-.112-20.835zm-242.24-12.664c1.585-1.359 1.363-1.168 0 0zm-.219.186c-.006.009-.014.014-.023.021.085-.072.167-.142.242-.206-.072.062-.138.116-.219.185zm323.527 71.923c-1.947-.222-5.567.441-9.864 1.515-6.048 1.511-14.262 2.742-15.667 2.906-.642.075-1.652.164-2.797.164-2.646 0-4.903-.479-5.826-1.316l-.502-.453c-2.668-2.393-4.547-4.456-5.583-11.486-1.111-7.538 2.267-12.46 4.382-14.195 2.109-1.415 14.64-3.382 19.518-4.123 2.875-.438 4.213-.753 5.342-1.004 6.225-1.129 8.09-1.594 9.728-3.473 1.299-1.488 1.434-3.119 1.093-4.848-.514-2.611-2.239-4.353-3.906-5.777-2.509-2.146-8.48-5.677-17.028-8.263-5.171-1.565-12.406-2.745-20.153-2.745-7.18 0-15.705 1.484-22.078 5.016-6.816 3.781-12.479 10.35-17.624 15.629-3.007 3.084-4.991 5.897-8.456 7.112-1.547.544-5.593 1.214-16.725 1.214H83.287c9.178-7.424 25.654-20.747 33.252-26.857 6.901-5.553 23.299-18.534 34.245-27.153.003-.001.005-.003.005-.003.529-.418 1.044-.82 1.543-1.216 1.199-.909 2.503-1.755 3.214-1.506.888.309.818 1.448.83 3.155l-.04 13.328v1.742c-7.836 6.719-16.57 14.205-16.57 14.205-.709.605-1.13 1.446-1.19 2.369-.06.922.248 1.811.871 2.5l.727.808c.669.741 1.64 1.169 2.659 1.169.846 0 1.66-.293 2.297-.828 0 0 5.024-4.248 11.207-9.479V83.79c0 1.918 1.561 3.479 3.479 3.479h1.211c1.917 0 3.479-1.561 3.479-3.479V57.424c2.829-2.393 5.572-4.711 7.901-6.682 4.254-3.598 9.459-8.063 13.994-11.887 1.389-1.088 3.629-3.047 4.679-2.682.882.307.787 1.413.799 3.105l.021 13.079v31.431c0 1.918 1.563 3.479 3.477 3.479h1.215c1.917 0 3.478-1.561 3.478-3.479V49.482c.002.293.251-9.613.039-20.332-.06-3.029-1.019-4.68-3.183-5.468-2.147-.78-4.661-.087-6.762 1.425-.052.05-.06.055-.058.055-7.969 6.635-30.202 25.371-22.962 19.163-.676.583-1.572 1.349-2.639 2.264v-1.327l-.126-13.622c-.009-.315-.007-.609-.025-.894-.196-2.717-.729-3.834-2.111-5.046-1.829-1.602-5.245-2.116-8.479.173l-.004.004c-9.602 7.596-35.763 28.076-42.353 33.311-8.11 6.445-44.957 36.409-44.957 36.409-.004.005-.009.012-.014.015-4.223 3.271-6.656 8.551-6.656 14.636v.507c0 10.203 6.841 18.151 17.496 18.151l313.42.002c12.934 0 16.05 2.261 21.133 5.999 3.937 2.953 13.28 10.289 18.46 12.535 2.412 1.045 10.097 4.393 19.999 4.393h.006c3.357 0 6.54-.324 9.456-.967 14.159-3.114 21.99-9.643 27.435-15.116 5.858-5.888 7.489-9.695 8.027-12.708.285-1.587.097-6.293-4.519-6.816zm-3.862 10.202c-1.278 1.586-2.701 3.164-4.072 4.363-5.221 4.565-11.691 10.596-24.46 13.405-2.442.538-5.135.81-8.007.81h-.006c-8.062 0-14.698-2.791-17.109-3.838-2.812-1.217-11.144-7.616-15.991-11.256-5.604-4.147-7.038-7.6-25.011-7.625l-314.157-.003c-6.951 0-10.816-4.995-10.816-11.532v-.507c0-6.536 3.865-11.53 10.816-11.53h306.527c13.112 0 17.404-.561 20.065-1.776 3.515-1.604 6.306-4.437 10.136-8.364 4.838-4.965 10.12-11.145 16.079-14.449 3.934-2.18 9.707-4.171 18.603-4.171 7.073 0 13.768 1.233 18.363 2.5 3.437.95 6.026 1.853 8.065 2.704.376.162.739.318 1.086.469.073.035.161.073.237.105.006.004.013.006.019.012 1.243.57 2.25 1.119 3.102 1.632 1.218.817 1.819 1.621 1.723 2.548-.098.93-.567 1.547-2.361 1.957-.482.102-.972.197-1.468.285-.275.046-.564.094-.888.146-.946.142-2.182.289-4.175.591-13.631 2.074-20.15 3.217-22.717 5.322-4.554 3.729-8.127 11.158-6.784 20.282 1.38 9.387 4.701 12.745 7.71 15.441l.479.429c2.233 2.026 5.853 3.054 10.334 3.054 1.475 0 2.765-.116 3.59-.213 1.534-.183 7.68-1.296 16.377-3.403.565-.139 1.122-.283 1.669-.436h-.003c.023-.007.057-.017.082-.021.122-.035.239-.07.356-.102.978-.27 2.395-.479 3.018.248.475.554.75 1.497-.411 2.923zM79.65 135.891h-2.363l-.055.186-.713 2.725-.712-2.725-.054-.186h-2.367v8.663h1.76v-5.544l.631 2.712.053.19h1.38l.052-.19.629-2.712v5.544h1.759v-8.663zm7.827 0h-5.396v8.663h5.54v-1.649h-3.782v-2.036h3.168v-1.65h-3.168v-1.68h3.638v-1.648zm5.146-.107c-1.915 0-3.059 1.667-3.059 4.461 0 2.137.803 4.417 3.059 4.417 1.378 0 2.457-1.002 2.457-2.278v-.258h-1.738l-.018.239c-.024.369-.346.649-.749.649-1.193 0-1.253-2.356-1.253-2.827 0-.461.06-2.756 1.253-2.756.349 0 .72.198.749.575l.018.244h1.738v-.263c0-1.233-1.079-2.203-2.457-2.203zm10.454.107h-1.756v3.352h-2.194v-3.352h-1.758v8.663h1.758v-3.663h2.194v3.663h1.756v-8.663zm6.181 0h-1.971l-.052.19-2.221 8.144-.09.328h1.791l.052-.195.526-2.146h1.947l.54 2.146.05.195h1.792l-.09-.328-2.222-8.144-.052-.19zm-1.545 4.67l.563-2.244.56 2.244h-1.123zm11.633-4.67h-1.652v5.067l-2.34-4.917-.069-.149h-1.865v8.663h1.651v-5.312l2.436 5.163.069.148h1.771v-8.663h-.001zm6.761 0h-4.196v1.649h1.226v5.365h-1.464v1.649h4.685v-1.649h-1.465v-5.365h1.214v-1.649zm5.477-.107c-1.915 0-3.059 1.667-3.059 4.461 0 2.137.804 4.417 3.059 4.417 1.379 0 2.459-1.002 2.459-2.278v-.258h-1.739l-.018.239c-.026.369-.348.649-.749.649-1.194 0-1.254-2.356-1.254-2.827 0-.461.06-2.756 1.254-2.756.352 0 .721.198.749.575l.018.244h1.739v-.263c0-1.233-1.08-2.203-2.459-2.203zm8.462.107h-1.967l-.055.19-2.223 8.144-.088.328h1.793l.049-.195.528-2.146h1.945l.542 2.146.049.195h1.79l-.09-.328-2.221-8.144-.052-.19zm-1.546 4.67l.567-2.244.555 2.244H138.5zm7.641-4.67h-1.758v8.663h5.924v-1.649h-4.166v-7.014zm14.464 0h-5.395v8.663h5.541v-1.649h-3.785v-2.036h3.171v-1.65h-3.171v-1.68h3.64v-1.648h-.001zm8.065 0h-1.645v5.44l-2.342-5.29-.071-.149h-1.863v8.663h1.647v-5.682l2.437 5.533.07.148h1.768v-8.663h-.001zm5.313-.107c-2.3 0-3.515 1.53-3.515 4.425 0 2.873 1.202 4.453 3.392 4.453.782 0 1.651-.182 2.445-.512l.159-.067v-4.408h-3.441v1.649h1.681v1.573c-.245.077-.486.117-.737.117-1.221 0-1.744-.872-1.744-2.911 0-1.897.509-2.672 1.76-2.672.533 0 .664.141.732.416l.05.197h1.699v-.356c.001-.996-1.183-1.904-2.481-1.904zm9.253.107h-4.192v1.649h1.223v5.365h-1.466v1.649h4.688v-1.649h-1.465v-5.365h1.212v-1.649zm7.963 0h-1.652v5.437l-2.34-5.287-.069-.149h-1.865v8.663h1.648v-5.682l2.438 5.533.066.148h1.774v-8.663zm7.597 0H193.4v8.663h5.54v-1.649h-3.784v-2.036h3.171v-1.65h-3.171v-1.68h3.641v-1.648h-.001zm7.84 0h-5.399v8.663h5.541v-1.649h-3.782v-2.036h3.169v-1.65h-3.169v-1.68h3.641v-1.648h-.001zm5.008 0h-2.627v8.663h1.757v-3.373h.571l1.788 3.24.075.133h2.024l-.23-.391-1.953-3.332c.9-.322 1.484-1.207 1.484-2.301 0-1.628-1.106-2.639-2.889-2.639zm-.871 1.648h.641c1.031 0 1.365.229 1.365.943 0 .792-.332 1.048-1.352 1.048h-.654v-1.991zm10.313-1.648h-4.193v1.649h1.224v5.365h-1.467v1.649h4.688v-1.649h-1.464v-5.365h1.212v-1.649zm8.507 0h-1.645v5.44l-2.339-5.29-.073-.149h-1.865v8.663h1.652v-5.682l2.434 5.533.07.148h1.767v-8.663h-.001zm4.965-.107c-2.3 0-3.516 1.53-3.516 4.425 0 2.873 1.204 4.453 3.396 4.453.781 0 1.65-.182 2.441-.512l.16-.067v-4.408H233.6v1.649h1.683v1.573c-.25.077-.492.117-.738.117-1.223 0-1.746-.872-1.746-2.911 0-1.897.51-2.672 1.759-2.672.53 0 .663.141.732.416l.049.197h1.7v-.356c0-.996-1.184-1.904-2.481-1.904zm11.811-.651c-1.313 0-2.709.791-2.709 2.256 0 .775.457 1.584.908 2.244-.751.588-1.21 1.463-1.21 2.344 0 1.58 1.193 2.686 2.903 2.686.631 0 1.132-.109 1.581-.352l.108.143.08.1h2.143l-.304-.414-.757-1.028c.434-.695.698-1.851.698-2.598v-.467h-1.757v.536c0 .329-.03.658-.088.971l-1.164-1.6.502-.375c.684-.504 1.592-1.295 1.592-2.35.001-1.311-1.283-2.096-2.526-2.096zm-.482 3.566c-.201-.279-.471-.703-.471-1.034 0-.527.349-.882.868-.882.202 0 .858.046.858.629 0 .369-.635.83-1.057 1.139-.068.051-.136.099-.198.148zm.543 4.316c-.634 0-1.313-.364-1.313-1.159 0-.294.186-.6.396-.83l1.366 1.918c-.141.044-.295.071-.449.071zm15.427-7.124h-2.361l-.055.186-.714 2.725-.71-2.725-.057-.186h-2.362v8.663h1.757v-5.544l.628 2.712.053.19h1.382l.052-.19.63-2.712v5.544h1.757v-8.663zm7.904 0h-5.394v8.663h5.538v-1.649h-3.782v-2.036h3.17v-1.65h-3.17v-1.68h3.638v-1.648zm5.144-.107c-1.914 0-3.055 1.667-3.055 4.461 0 2.137.802 4.417 3.055 4.417 1.382 0 2.458-1.002 2.458-2.278v-.258h-1.737l-.018.239c-.025.369-.348.649-.749.649-1.19 0-1.254-2.356-1.254-2.827 0-.461.063-2.756 1.254-2.756.353 0 .722.198.749.575l.018.244h1.737v-.263c0-1.233-1.076-2.203-2.458-2.203zm10.457.107h-1.757v3.352h-2.195v-3.352h-1.755v8.663h1.755v-3.663h2.195v3.663h1.757v-8.663zm6.18 0h-1.969l-.053.19-2.222 8.144-.09.328h1.796l.047-.195.526-2.146h1.95l.537 2.146.049.195h1.793l-.09-.328-2.223-8.144-.051-.19zm-1.547 4.67l.566-2.244.558 2.244h-1.124zm11.634-4.67h-1.648v5.437l-2.339-5.287-.07-.149h-1.864v8.663h1.647v-5.682l2.434 5.533.072.148h1.769v-8.663h-.001zm5.283-.107c-2.287 0-3.142 2.714-3.142 4.425 0 1.791.837 4.453 3.142 4.453 2.307 0 3.143-2.662 3.143-4.453 0-1.711-.854-4.425-3.143-4.425zm0 7.231c-1.283 0-1.383-2.101-1.383-2.743 0-.854.132-2.84 1.383-2.84 1.287 0 1.388 2.174 1.388 2.84 0 .457-.067 2.743-1.388 2.743zm10.496-3.677h-4.916v1.755h4.916v-1.755zm6.749-3.447h-4.196v1.649h1.225v5.365h-1.466v1.649h4.689v-1.649h-1.466v-5.365h1.214v-1.649zm8.75 0h-1.648v5.437l-2.34-5.287-.072-.149h-1.861v8.663h1.649v-5.682l2.434 5.533.068.148h1.771v-8.663h-.001zm7.602 0h-4.797v8.663h1.754v-3.685h2.454v-1.65h-2.454v-1.68h3.043v-1.648zm4.38-.107c-2.288 0-3.14 2.714-3.14 4.425 0 1.791.835 4.453 3.14 4.453 2.307 0 3.147-2.662 3.147-4.453 0-1.711-.858-4.425-3.147-4.425zm0 7.231c-1.285 0-1.382-2.101-1.382-2.743 0-.854.134-2.84 1.382-2.84 1.287 0 1.387 2.174 1.387 2.84-.001.457-.065 2.743-1.387 2.743zm7.589-7.124h-2.625v8.663h1.756v-3.373h.572l1.786 3.24.075.133h2.023l-.23-.391-1.953-3.332c.902-.322 1.485-1.207 1.485-2.301 0-1.628-1.107-2.639-2.889-2.639zm-.87 1.648h.641c1.031 0 1.364.229 1.364.943 0 .792-.329 1.048-1.352 1.048h-.653v-1.991zm12.293-1.648h-2.361l-.055.186-.714 2.725-.712-2.725-.054-.186h-2.363v8.663h1.757v-5.544l.631 2.712.052.19h1.382l.052-.19.631-2.712v5.544h1.754v-8.663zm5.941 0h-1.97l-.052.19-2.223 8.144-.087.328h1.794l.047-.195.527-2.146h1.948l.541 2.146.046.195h1.794l-.092-.328-2.221-8.144-.052-.19zm-1.546 4.67l.564-2.244.56 2.244h-1.124zm10.673-4.67h-6.154v1.649h2.198v7.014h1.761v-7.014h2.196v-1.649h-.001zm6.051 0h-4.198v1.649h1.227v5.365h-1.467v1.649h4.69v-1.649h-1.467v-5.365h1.215v-1.649zm5.439-.107c-1.914 0-3.058 1.667-3.058 4.461 0 2.137.804 4.417 3.058 4.417 1.379 0 2.458-1.002 2.458-2.278v-.258h-1.741l-.014.241c-.025.367-.349.647-.754.647-1.189 0-1.252-2.356-1.252-2.827 0-.461.063-2.756 1.252-2.756.347 0 .725.2.754.575l.014.244h1.741v-.263c0-1.233-1.079-2.203-2.458-2.203zm7.312 0c-1.607 0-2.769 1.059-2.769 2.517 0 1.443 1.204 2.022 2.005 2.408l.227.104c.919.422 1.478.725 1.478 1.332 0 .805-.833.87-1.086.87-.645 0-1.052-.377-1.062-.983l-.002-.255h-1.756v.511c0 1.486 1.434 2.375 2.819 2.375 1.377 0 2.841-.887 2.841-2.531 0-1.537-1.085-2.188-2.2-2.721l-.723-.336c-.553-.257-.787-.52-.787-.881 0-.507.332-.762.987-.762.311 0 .575.094.73.258.113.124.167.293.152.498l-.021.276h1.778v-.417c.003-1.355-1.351-2.263-2.611-2.263z" fill="#9E9E9F"/></svg>